<svg xmlns="http://www.w3.org/2000/svg" xmlns:xlink="http://www.w3.org/1999/xlink" width="246.109" height="180.553" viewBox="0 0 246.109 180.553">
    <defs>
        <linearGradient id="linear-gradient" x1=".5" x2=".5" y1="1" gradientUnits="objectBoundingBox">
            <stop offset="0" stop-color="gray" stop-opacity=".251"/>
            <stop offset=".54" stop-color="gray" stop-opacity=".122"/>
            <stop offset="1" stop-color="gray" stop-opacity=".102"/>
        </linearGradient>
        <linearGradient id="linear-gradient-2" x1="9.926" x2="9.926" y2="0" xlink:href="#linear-gradient"/>
        <style>
            .cls-8{fill:#fd7600}.cls-3{fill:#8ed16f}.cls-4{opacity:.3}.cls-18{fill:#fff}.cls-11{fill:#aca9c9}.cls-12{fill:#618fd8}.cls-15{opacity:.1}.cls-14{fill:#f7c4a7}.cls-16{fill:#e14b5a}.cls-18{opacity:.4}.cls-19{opacity:.05}
        </style>
    </defs>
    <g id="Group_471" transform="translate(0 .001)">
        <path id="Path_711" fill="#fd7600" d="M181.847 258.2c-3.237.978-6.266 3.345-7.075 6.63-.925 3.775 1.208 7.58 1.516 11.456 1 12.7-17.071 21.66-14.494 34.134 1.023 4.96 5.16 8.609 9.235 11.623 6.529 4.814 13.774 9.066 21.8 10.266 12.177 1.824 24.9-3.538 36.735-.149 9.546 2.734 16.851 10.746 26.332 13.7 7.217 2.251 14.992 1.365 22.488.452 4.043-.49 8.278-1.056 11.54-3.482 6.064-4.515 6.446-13.432 10.506-19.823 6.271-9.854 20.022-11.79 31.552-9.875s22.726 6.63 34.407 6.246a15.7 15.7 0 0 0 7.232-1.647c2.648-1.488 4.437-4.111 6.019-6.706a108.513 108.513 0 0 0 15.734-53.919c.068-3.272-.048-6.686-1.587-9.574-1.946-3.654-5.834-5.839-9.705-7.31-9.3-3.538-19.565-4.116-28.674-8.106-8.786-3.848-15.9-10.6-23.552-16.381a125.453 125.453 0 0 0-51.67-23.012c-4.394-.849-8.955-1.455-13.321-.475-5.031 1.129-9.367 4.265-13.266 7.641-10.372 8.98-18.686 20.06-28.245 29.9a160.8 160.8 0 0 1-21.458 18.5c-3.538 2.55-7.3 5.577-11.239 7.462-3.611 1.738-6.994 1.304-10.81 2.449z" opacity="0.2" transform="translate(-149.277 -166.735)"/>
        <path id="Path_712" fill="none" stroke="#535461" stroke-miterlimit="10" stroke-width="2px" d="M380.646 138.88s-9.766 12.97-2.779 28.088-12.177 39.408-12.177 39.408" transform="translate(-301.84 -127.222)"/>
        <path id="Path_713" d="M423.534 99.544c-.776 3.338-4.488 5.326-4.488 5.326s-2.451-3.424-1.675-6.762 2.779-5.723 4.488-5.326 2.451 3.424 1.675 6.762z" class="cls-3" transform="translate(-340.349 -92.74)"/>
        <ellipse id="Ellipse_155" cx="1.948" cy=".73" class="cls-3" rx="1.948" ry=".73" transform="rotate(-76.9 44.318 -45.744)"/>
        <ellipse id="Ellipse_156" cx="1.948" cy=".73" class="cls-4" rx="1.948" ry=".73" transform="rotate(-76.9 44.318 -45.744)"/>
        <path id="Path_714" d="M415.091 158.789c-3.224 1.162-6.911-.874-6.911-.874s1.541-3.919 4.768-5.079 6.317-.758 6.911.874-1.544 3.917-4.768 5.079z" class="cls-3" transform="translate(-333.594 -137.155)"/>
        <ellipse id="Ellipse_157" cx="1.948" cy=".73" class="cls-3" rx="1.948" ry=".73" transform="rotate(-20 91.735 -213.997)"/>
        <ellipse id="Ellipse_158" cx="1.948" cy=".73" class="cls-4" rx="1.948" ry=".73" transform="rotate(-20 91.735 -213.997)"/>
        <path id="Path_715" d="M412.121 205.559c-3.224 1.162-6.911-.874-6.911-.874s1.541-3.919 4.768-5.079 6.317-.758 6.911.874-1.544 3.92-4.768 5.079z" class="cls-3" transform="translate(-331.375 -172.107)"/>
        <ellipse id="Ellipse_159" cx="1.948" cy=".73" class="cls-3" rx="1.948" ry=".73" transform="rotate(-19.8 125.7 -207)"/>
        <ellipse id="Ellipse_160" cx="1.948" cy=".73" class="cls-4" rx="1.948" ry=".73" transform="rotate(-19.8 125.7 -207)"/>
        <path id="Path_716" d="M427.031 260.429c-3.224 1.162-6.911-.874-6.911-.874s1.541-3.919 4.768-5.079 6.317-.758 6.911.874-1.544 3.924-4.768 5.079z" class="cls-3" transform="translate(-342.517 -213.113)"/>
        <ellipse id="Ellipse_161" cx="1.948" cy=".73" class="cls-3" rx="1.948" ry=".73" transform="rotate(-19.8 167.324 -210.86)"/>
        <ellipse id="Ellipse_162" cx="1.948" cy=".73" class="cls-4" rx="1.948" ry=".73" transform="rotate(-19.8 167.324 -210.86)"/>
        <path id="Path_717" d="M417.331 310.609c-3.224 1.162-6.911-.874-6.911-.874s1.541-3.919 4.768-5.079 6.317-.758 6.911.874-1.542 3.919-4.768 5.079z" class="cls-3" transform="translate(-335.268 -250.613)"/>
        <ellipse id="Ellipse_163" cx="1.948" cy=".73" class="cls-3" rx="1.948" ry=".73" transform="rotate(-20 201.376 -196.445)"/>
        <ellipse id="Ellipse_164" cx="1.948" cy=".73" class="cls-4" rx="1.948" ry=".73" transform="rotate(-20 201.376 -196.445)"/>
        <path id="Path_718" d="M370.231 170.438c2.38 2.466 6.587 2.274 6.587 2.274s.346-4.2-2.034-6.663-5.329-3.482-6.587-2.274-.346 4.197 2.034 6.663z" class="cls-3" transform="translate(-303.292 -145.446)"/>
        <ellipse id="Ellipse_165" cx=".73" cy="1.948" class="cls-3" rx=".73" ry="1.948" transform="rotate(-44.03 60.7 -72.476)"/>
        <ellipse id="Ellipse_166" cx=".73" cy="1.948" class="cls-4" rx=".73" ry="1.948" transform="rotate(-44.03 60.7 -72.476)"/>
        <path id="Path_719" d="M364.821 325.428c2.38 2.466 6.587 2.274 6.587 2.274s.346-4.2-2.034-6.663-5.329-3.482-6.587-2.274-.346 4.197 2.034 6.663z" class="cls-3" transform="translate(-299.249 -261.274)"/>
        <ellipse id="Ellipse_167" cx=".73" cy="1.948" class="cls-3" rx=".73" ry="1.948" transform="rotate(-44.03 108.452 -51.199)"/>
        <ellipse id="Ellipse_168" cx=".73" cy="1.948" class="cls-4" rx=".73" ry="1.948" transform="rotate(-44.03 108.452 -51.199)"/>
        <path id="Path_720" d="M372.231 226.325c3.068 1.531 6.966-.061 6.966-.061s-1.074-4.071-4.139-5.6-6.186-1.516-6.966.061 1.071 4.068 4.139 5.6z" class="cls-3" transform="translate(-303.502 -187.491)"/>
        <ellipse id="Ellipse_169" cx=".73" cy="1.948" class="cls-3" rx=".73" ry="1.948" transform="rotate(-63.48 62.897 -37.227)"/>
        <ellipse id="Ellipse_170" cx=".73" cy="1.948" class="cls-4" rx=".73" ry="1.948" transform="rotate(-63.48 62.897 -37.227)"/>
        <path id="Path_721" d="M377.323 280.895c3.068 1.531 6.966-.061 6.966-.061s-1.074-4.071-4.139-5.6-6.186-1.516-6.966.061 1.084 4.084 4.139 5.6z" class="cls-3" transform="translate(-307.308 -228.272)"/>
        <ellipse id="Ellipse_171" cx=".73" cy="1.948" class="cls-3" rx=".73" ry="1.948" transform="rotate(-63.48 74.687 -31.373)"/>
        <ellipse id="Ellipse_172" cx=".73" cy="1.948" class="cls-4" rx=".73" ry="1.948" transform="rotate(-63.48 74.687 -31.373)"/>
        <path id="Path_722" d="M183.256 249.21a42.592 42.592 0 0 1 7.767 44.3C180.954 319.983 208.284 364 208.284 364s-.293-.043-.836-.139c-36.639-6.466-54.831-48.365-34.465-79.49 7.561-11.571 13.79-25.15 10.273-35.161z" class="cls-3" transform="translate(-151.486 -209.674)"/>
        <path id="Path_723" d="M113 534.061s20.353-3.242 22.208 15 39.138 20.77 39.138 20.77l-.7.465c-30.784 20.214-60.211 12.872-55.776-13.961 1.652-9.979 1.515-19.998-4.87-22.274z" class="cls-3" transform="translate(-113 -422.382)"/>
        <g id="Group_463" opacity="0.3" transform="translate(0 111.456)">
            <path id="Path_724" fill="#fff" d="M113 534.061s20.353-3.242 22.208 15 39.138 20.77 39.138 20.77l-.7.465c-30.784 20.214-60.211 12.872-55.776-13.961 1.652-9.979 1.515-19.998-4.87-22.274z" transform="translate(-113 -533.838)"/>
        </g>
        <ellipse id="Ellipse_173" cx="5.597" cy="14.602" class="cls-3" rx="5.597" ry="14.602" transform="translate(21.02 82.249)"/>
        <ellipse id="Ellipse_174" cx="5.597" cy="14.602" class="cls-4" rx="5.597" ry="14.602" transform="translate(21.02 82.249)"/>
        <ellipse id="Ellipse_175" cx="3.773" cy="8.397" class="cls-3" rx="3.773" ry="8.397" transform="rotate(-45 175.595 56.38)"/>
        <ellipse id="Ellipse_176" cx="3.773" cy="8.397" class="cls-4" rx="3.773" ry="8.397" transform="rotate(-45 175.595 56.38)"/>
        <path id="Path_725" fill="url(#linear-gradient)" d="M427.186 358.2H294.7a6.037 6.037 0 0 0-6.037 6.036v77.656a6.037 6.037 0 0 0 6.037 6.036h132.49a6.037 6.037 0 0 0 6.037-6.036v-77.655a6.037 6.037 0 0 0-6.036-6.036z" transform="translate(-244.274 -291.124)"/>
        <rect id="Rectangle_286" width="141.159" height="87.617" class="cls-8" rx="24.81" transform="translate(46.086 68.132)"/>
        <path id="Rectangle_287" d="M0 0H141.159V16.063H0z" class="cls-8" transform="translate(46.086 83.465)"/>
        <path id="Rectangle_288" d="M0 0H141.159V16.063H0z" class="cls-4" transform="translate(46.086 83.465)"/>
        <path id="Rectangle_289" fill="#d6d6e3" d="M0 0H114.388V7.788H0z" transform="translate(59.473 111.454)"/>
        <circle id="Ellipse_177" cx="11.196" cy="11.196" r="11.196" class="cls-8" transform="translate(57.768 127.517)"/>
        <circle id="Ellipse_178" cx="11.196" cy="11.196" r="11.196" class="cls-4" transform="translate(57.768 127.517)"/>
        <path id="Path_726" fill="url(#linear-gradient-2)" d="M822.159 223.58a2.45 2.45 0 0 0 1.079 1.364c2.322 1.534 7.371 1.208 7.977 1.208.129 0 .3.23.485.617a42.652 42.652 0 0 1 2.368 8.445c.124 1.468 1.488 8.338 3.722 10.9.068.078.136.152.2.22 2.191 2.2 4.761-.22 4.761-.22l.369-1.281c-.1.505-.22 1.094-.336 1.754-.058.331-.116.682-.172 1.044a40 40 0 0 0-.523 6.158 22.353 22.353 0 0 0 .1 2.244c.02.207.043.412.071.611a21.424 21.424 0 0 1 .167 2.739 74.453 74.453 0 0 1-1.407 12.2l.053-.018c-.033.169-.053.253-.053.253l.081-.025q-.058.377-.111.771c-.47 3.411-.74 7.656-.869 10.107a20.233 20.233 0 0 0 .172 3.871l2.466 17.362v8.086a14.28 14.28 0 0 0 .445 3.634c.8 3.055.141 13.718-.23 18.777-.1 1.38-.184 2.345-.207 2.623v.083l.071-.028v.088a1.428 1.428 0 0 1 .328-.1c-.978 1.516-2.749 4.023-4.111 4.445a4.313 4.313 0 0 0-2.055 1.363l-.035.048-.051.071a1.517 1.517 0 0 0-.3.773.86.86 0 0 1-.045-.149c-.1.563.235 1.079 1.3 1.329a8.745 8.745 0 0 0 1.883.152c3.689 0 10.236-1.135 10.959-2.355v-4.21l.119.038v.038l.452.149 1.24-4.164c1.488-1.1.253-20.818 0-25.349-.227-4.129 2.327-20.553 2.78-23.446l-.061-.073.068-.422a1.8 1.8 0 0 1 .253.222 3.313 3.313 0 0 1 .387.571 7.638 7.638 0 0 1 .548 1.132c2.5 6.226 3.621 24.03 3.621 25.627V329.6a17.429 17.429 0 0 0 .682 4.884 20.932 20.932 0 0 1 .531 2.542c.053.336.1.67.142.988s.086.682.119.98a2.042 2.042 0 0 0 .025.225.443.443 0 0 1 0 .1c.068.659.1 1.092.1 1.092a.253.253 0 0 1 .051-.1l.013.159a.342.342 0 0 1 .1-.157 2.39 2.39 0 0 1 .333-.273v2.128l-.061-.045v.366c2.572 1.941 6.759 2.527 9.973 2.5a12.758 12.758 0 0 0 4.359-.546c.839-.412.379-1.372-.384-2.107a2.883 2.883 0 0 0-1.85-.955c-.814.088-3.6-3.062-5.054-4.788l.164-.073.232-.1v-27.909s.374-11.022 1.488-21.922a38.781 38.781 0 0 0-1.908-16.262l-.035-.1.339.053c.359.056.551.088.551.088a2.092 2.092 0 0 0-.023-.253h.023s-.435-4.728-.44-10.666c0-6.731.568-14.938 2.921-19.583a13.813 13.813 0 0 0 1.769-6.479 6.776 6.776 0 0 0-1.21-4.144 3.284 3.284 0 0 0-1.392-1.1l-.048-.028h-.028a3.462 3.462 0 0 0-1.279-.253h-5.081a3.394 3.394 0 0 1-1.678-.442l-1.989-1.127a10.085 10.085 0 0 1-.617-4.925c0-.134.025-.268.038-.4l.144-.152c.111-.119.215-.253.316-.366a2.8 2.8 0 0 1-.023.3c-.025.159-.068.253-.136.273a4.389 4.389 0 0 0 2.966-1.2c.028-.033.053-.068.078-.1a5.427 5.427 0 0 0 .488-1.011 2.929 2.929 0 0 1 .371-.677c.167-.217.384-.394.563-.6l.03-.035a4.363 4.363 0 0 0 .682-2.835c.013-2.406-.058-5.054-1.668-6.858a7.593 7.593 0 0 0-5.493-2.135c-2.024-.066-4.043.3-6.064.308-1.375 0-3.032-.023-3.79 1.114-.371.558-.417 1.289-.821 1.824-.232.308-.589.574-.609.958a.984.984 0 0 0 .131.505v.018a3.575 3.575 0 0 0 2.618 1.756 6.5 6.5 0 0 0-.505.7 6.64 6.64 0 0 0-1.011 3.538 4.146 4.146 0 0 0 .015.435 6.679 6.679 0 0 0 2.117 4.45c-.02.141-.04.283-.063.422l.045.04q.215.195.447.369l.056.043v.253a4.209 4.209 0 0 1-.015.44c-.015.144 0 .232-.015.349l-.033-.028-2.463-2.066-3.969-3.674s-9.925-7.224-10.423-3.79a2.474 2.474 0 0 0 .473 1.713c1.822 2.779 8.086 5.145 8.086 5.145a52.942 52.942 0 0 1 6.234 8.207c-.088.048-.177.093-.27.136a11.719 11.719 0 0 1-5.468.6c-3.747.584-4.086 4.69-4.066 6.35v.344l-4.973-11.676-.015-.035a2.459 2.459 0 0 0-1.86-1.46c-3.327-.569-11.637-1.733-10.942.72zm20.818 113.453a2.168 2.168 0 0 1 .22-.04l-.023.035z" transform="translate(-642.938 -177.052)"/>
        <path id="Path_727" d="M985.483 716.43s4.71 5.92 5.8 5.8 3.623 2.294 2.176 3.032-9.784 1.208-13.9-1.933V718.6z" class="cls-11" transform="translate(-760.598 -558.837)"/>
        <path id="Path_728" d="M887.876 717.86s-2.779 4.953-4.71 5.559-3.623 2.779-1.087 3.383 11.6-.725 12.442-2.176v-6.405z" class="cls-11" transform="translate(-686.791 -559.906)"/>
        <path id="Path_729" d="M894.411 469.074l2.4 17.127v7.962a14.268 14.268 0 0 0 .435 3.583c.783 3.014.139 13.531-.225 18.521-.119 1.627-.21 2.668-.21 2.668 1.569-.725 8.215 1.569 8.215 1.569l.672-2.287.536-1.819c1.45-1.087.253-20.535 0-25.015-.164-3.06 1.2-12.98 2.074-18.926.253-1.68.457-3.032.581-3.846l.121-.786a2.646 2.646 0 0 1 .652.786 7.559 7.559 0 0 1 .533 1.117c2.431 6.143 3.537 23.7 3.537 25.268v16.515a17.416 17.416 0 0 0 .665 4.819 25.246 25.246 0 0 1 .654 3.479c.172 1.311.253 2.368.253 2.368.121-.725 7.611-3.987 7.611-3.987v-27.542s.361-10.865 1.45-21.624a38.581 38.581 0 0 0-1.39-14.549c-.3-1.028-.6-1.9-.862-2.59-.442-1.175-.758-1.824-.758-1.824h-24.67c-.414.078-.758.912-1.069 2.178-.2.849-.379 1.89-.533 3.032-.457 3.363-.72 7.55-.846 9.971a20.188 20.188 0 0 0 .174 3.832z" class="cls-12" transform="translate(-696.815 -359.773)"/>
        <g id="Group_464" opacity="0.1" transform="translate(200.056 90.363)">
            <path id="Path_730" d="M984.9 518.492V490.95s.361-10.865 1.45-21.624a37.67 37.67 0 0 0-3.032-18.966h.483a37.89 37.89 0 0 1 3.032 18.966c-1.074 10.752-1.45 21.624-1.45 21.624v27.542s-7.489 3.262-7.611 3.987a3.612 3.612 0 0 0-.038-.44 70.434 70.434 0 0 1 7.166-3.547z" transform="translate(-959.287 -450.36)"/>
            <path id="Path_731" d="M905.4 722.321a1.875 1.875 0 0 0-.664.136v-.121a4.313 4.313 0 0 1 .664-.015z" transform="translate(-904.74 -653.598)"/>
            <path id="Path_732" d="M936.682 569.19c1.45-1.086.253-20.535 0-25.015s2.779-23.555 2.779-23.555a2.107 2.107 0 0 1 .417.43c-.445 2.85-2.931 19.055-2.711 23.125.253 4.47 1.45 23.919 0 25.015l-1.207 4.11-.44-.147z" transform="translate(-927.742 -502.867)"/>
        </g>
        <path id="Path_733" d="M847.581 288.409l-2.527 8.94s-2.658 2.527-4.831 0-3.512-9.3-3.644-10.752-2.054-8.94-2.78-8.94-7.972.483-8.818-2.527c-.677-2.421 7.414-1.263 10.653-.72a2.4 2.4 0 0 1 1.812 1.44l4.968 11.863s2.63-3.049 5.167.696z" class="cls-14" transform="translate(-645.049 -227.941)"/>
        <path id="Path_734" d="M939.412 249.82s-3.141 8.819.846 11.959S926 265.767 926 265.767l2.476-2.355s1.751-6.946.543-12.745z" class="cls-14" transform="translate(-720.572 -210.13)"/>
        <path id="Path_735" d="M911.339 292.33s3.2-.786 3.2-1.63l2.838 1.63h7.128s5.2 2.9.846 11.6-2.414 30.07-2.414 30.07-15.462-2.779-28.267 1.45c0 0 1.933-9.544 1.208-14.979s1.208-13.046 1.208-13.046l1.086-4.591s-.061-4.3-4.531-2.115c0 0-.665-6.221 3.927-6.946 0 0 5.306.725 6.885-1.933 0 .007 3.505 2.06 6.886.49z" class="cls-15" transform="translate(-696.364 -240.68)"/>
        <path id="Path_736" d="M911.338 291.38s3.2-.786 3.2-1.63l2.08 1.2a3.285 3.285 0 0 0 1.632.435h4.985a3.285 3.285 0 0 1 2.671 1.359c1.145 1.61 2.171 4.783-.556 10.239-4.349 8.7-2.416 30.069-2.416 30.069s-15.461-2.779-28.267 1.45c0 0 1.933-9.544 1.208-14.979s1.208-13.028 1.208-13.028l1.087-4.591s-.061-4.3-4.531-2.115c0 0-.647-6.049 3.737-6.913a1.238 1.238 0 0 1 .371-.025c.938.1 5.306.414 6.706-1.953 0-.003 3.505 2.051 6.885.482z" class="cls-16" transform="translate(-696.364 -239.97)"/>
        <path id="Path_737" d="M954.541 311.617s-3.866 2.416-10.148 0c0 0-6.886-2.527-9.061-7.489s10.992.846 10.992.846 2.779 0 3.623-.6 6.767 4.585 4.594 7.243z" class="cls-15" transform="translate(-727.364 -249.216)"/>
        <path id="Path_738" d="M909.108 262.189s-3.866 2.416-10.148 0c0 0-6.886-2.527-9.061-7.489s-7.247-10.4-7.247-10.4-8.818-3.383-8.338-6.764 10.148 3.745 10.148 3.745l3.866 3.623 12.563 10.63s2.779 0 3.623-.6 6.767 4.597 4.594 7.255z" class="cls-14" transform="translate(-681.932 -200.271)"/>
        <path id="Path_739" d="M937.49 252.1l10.388-.846a23.846 23.846 0 0 0-1.084 4.92 6.638 6.638 0 0 1-9.3.253 11.808 11.808 0 0 0-.004-4.327z" class="cls-15" transform="translate(-729.158 -211.198)"/>
        <circle id="Ellipse_179" cx="6.643" cy="6.643" r="6.643" class="cls-14" transform="translate(206.341 33.351)"/>
        <path id="Path_740" d="M936.319 221.9c-.389-.642.4-1.478.141-2.181-.24-.647-1.2-.758-1.516-1.362-.253-.488 0-1.087-.1-1.625a1.669 1.669 0 0 0-1.6-1.162 5.715 5.715 0 0 0-2.069.457 7.946 7.946 0 0 1-3.409.526 3.574 3.574 0 0 1-2.815-1.786 1.01 1.01 0 0 1-.129-.49c.02-.379.369-.639.594-.942.394-.528.44-1.248.8-1.8.733-1.122 2.342-1.094 3.682-1.1 1.971 0 3.932-.369 5.9-.3a7.352 7.352 0 0 1 5.349 2.1c1.567 1.781 1.637 4.389 1.625 6.764a4.305 4.305 0 0 1-.665 2.8c-.182.22-.4.4-.579.627-.379.505-.48 1.152-.836 1.665a4.076 4.076 0 0 1-2.964 1.281c.323-.043.056-2.208 0-2.408-.213-.992-.443-.971-1.409-1.064z" class="cls-15" transform="translate(-719.69 -180.468)"/>
        <path id="Path_741" fill="#281c1c" d="M936.319 220.954c-.389-.642.4-1.478.141-2.181-.24-.647-1.2-.758-1.516-1.362-.253-.488 0-1.087-.1-1.625a1.669 1.669 0 0 0-1.6-1.162 5.715 5.715 0 0 0-2.069.457 7.946 7.946 0 0 1-3.409.526 3.574 3.574 0 0 1-2.815-1.786 1.01 1.01 0 0 1-.129-.49c.02-.379.369-.639.594-.943.394-.528.44-1.248.8-1.8.733-1.122 2.342-1.094 3.682-1.1 1.971 0 3.932-.369 5.9-.3a7.352 7.352 0 0 1 5.349 2.1c1.567 1.781 1.637 4.389 1.625 6.764a4.305 4.305 0 0 1-.665 2.8c-.182.22-.4.4-.579.627-.379.505-.48 1.152-.836 1.665a4.076 4.076 0 0 1-2.964 1.281c.323-.043.056-2.208 0-2.408-.213-1.007-.443-.977-1.409-1.063z" transform="translate(-719.69 -179.758)"/>
        <path id="Path_742" d="M993.107 314.862s-3.262-8.457-5.8-8.7 4.831 0 4.831 0l2.416 4.349z" class="cls-15" transform="translate(-765.991 -252.157)"/>
        <path id="Path_743" d="M994.067 314.862s-3.262-8.457-5.8-8.7 4.831 0 4.831 0l2.416 4.349z" class="cls-16" transform="translate(-766.708 -252.157)"/>
        <path id="Path_744" d="M976.65 715.576c.172 1.311.253 2.368.253 2.368.121-.725 7.611-3.987 7.611-3.987v-1.963a3.333 3.333 0 0 0-.571.028 10.777 10.777 0 0 0-4.043 1.652 36.865 36.865 0 0 1-3.25 1.902z" class="cls-12" transform="translate(-758.423 -555.519)"/>
        <path id="Path_745" d="M976.65 715.576c.172 1.311.253 2.368.253 2.368.121-.725 7.611-3.987 7.611-3.987v-1.963a3.333 3.333 0 0 0-.571.028 10.777 10.777 0 0 0-4.043 1.652 36.865 36.865 0 0 1-3.25 1.902z" class="cls-4" transform="translate(-758.423 -555.519)"/>
        <path id="Path_746" d="M904.5 714.28c1.569-.725 8.215 1.569 8.215 1.569l.672-2.287c-1.16-.235-2.312-.528-3.444-.877a11.463 11.463 0 0 1-1.546-.571 10.34 10.34 0 0 0-1.031-.48 5.348 5.348 0 0 0-2.658-.023c-.117 1.628-.208 2.669-.208 2.669z" class="cls-12" transform="translate(-704.504 -555.117)"/>
        <path id="Path_747" d="M904.5 714.28c1.569-.725 8.215 1.569 8.215 1.569l.672-2.287c-1.16-.235-2.312-.528-3.444-.877a11.463 11.463 0 0 1-1.546-.571 10.34 10.34 0 0 0-1.031-.48 5.348 5.348 0 0 0-2.658-.023c-.117 1.628-.208 2.669-.208 2.669z" class="cls-4" transform="translate(-704.504 -555.117)"/>
        <path id="Path_748" d="M993.2 744.173a.723.723 0 0 0 .414-.48.71.71 0 0 1-.414.841c-1.45.725-9.784 1.208-13.9-1.933v-.361c4.114 3.141 12.447 2.66 13.9 1.933z" class="cls-18" transform="translate(-760.404 -578.125)"/>
        <path id="Path_749" d="M881.83 745.366c2.527.6 11.6-.725 12.442-2.176v.361c-.846 1.45-9.905 2.779-12.442 2.176-1.036-.253-1.367-.758-1.263-1.311.08.409.459.747 1.263.95z" class="cls-18" transform="translate(-686.605 -578.835)"/>
        <path id="Path_750" d="M913.457 402.417s-2.658-.846-3.383 0-6.923 2.83-6.923 2.83" class="cls-15" transform="translate(-703.495 -323.888)"/>
        <path id="Rectangle_290" d="M0 0H12.925V0.273H0z" class="cls-3" transform="rotate(180 96.405 22.669)"/>
        <path id="Rectangle_291" d="M0 0H12.925V0.273H0z" class="cls-3" transform="rotate(180 96.405 22.806)"/>
        <path id="Rectangle_292" d="M0 0H12.925V0.273H0z" class="cls-15" transform="rotate(180 96.405 22.806)"/>
        <path id="Rectangle_293" d="M0 0H12.925V0.273H0z" class="cls-3" transform="rotate(180 96.405 22.942)"/>
        <path id="Rectangle_294" d="M0 0H12.925V0.273H0z" class="cls-3" transform="rotate(180 96.405 23.077)"/>
        <path id="Rectangle_295" d="M0 0H12.925V0.273H0z" class="cls-15" transform="rotate(180 96.405 23.077)"/>
        <path id="Rectangle_296" d="M0 0H12.925V0.273H0z" class="cls-3" transform="rotate(180 96.405 23.214)"/>
        <path id="Rectangle_297" d="M0 0H12.925V0.273H0z" class="cls-3" transform="rotate(180 96.405 23.349)"/>
        <path id="Rectangle_298" d="M0 0H12.925V0.273H0z" class="cls-15" transform="rotate(180 96.405 23.349)"/>
        <path id="Rectangle_299" d="M0 0H12.925V0.273H0z" class="cls-3" transform="rotate(180 96.405 23.485)"/>
        <path id="Rectangle_300" d="M0 0H12.925V0.273H0z" class="cls-3" transform="rotate(180 96.405 23.62)"/>
        <path id="Rectangle_301" d="M0 0H12.925V0.273H0z" class="cls-15" transform="rotate(180 96.405 23.62)"/>
        <path id="Rectangle_302" d="M0 0H12.925V0.273H0z" class="cls-3" transform="rotate(180 96.405 21.583)"/>
        <path id="Rectangle_303" d="M0 0H12.925V0.273H0z" class="cls-3" transform="rotate(-140.26 107.613 -13.452)"/>
        <path id="Rectangle_304" d="M0 0H12.925V0.273H0z" class="cls-3" transform="rotate(-140.26 102.298 -13.99)"/>
        <path id="Rectangle_305" d="M0 0H12.925V0.273H0z" class="cls-3" transform="rotate(180 96.405 21.718)"/>
        <path id="Rectangle_306" d="M0 0H12.925V0.273H0z" class="cls-15" transform="rotate(180 96.405 21.718)"/>
        <path id="Rectangle_307" d="M0 0H12.925V0.273H0z" class="cls-3" transform="rotate(180 96.405 21.856)"/>
        <path id="Rectangle_308" d="M0 0H12.925V0.273H0z" class="cls-3" transform="rotate(180 96.405 21.99)"/>
        <path id="Rectangle_309" d="M0 0H12.925V0.273H0z" class="cls-15" transform="rotate(180 96.405 21.99)"/>
        <path id="Rectangle_310" d="M0 0H12.925V0.273H0z" class="cls-3" transform="rotate(180 96.405 22.126)"/>
        <path id="Rectangle_311" d="M0 0H12.925V0.273H0z" class="cls-3" transform="rotate(180 96.405 22.262)"/>
        <path id="Rectangle_312" d="M0 0H12.925V0.273H0z" class="cls-15" transform="rotate(180 96.405 22.262)"/>
        <path id="Rectangle_313" d="M0 0H12.925V0.273H0z" class="cls-3" transform="rotate(180 96.405 22.398)"/>
        <path id="Rectangle_314" d="M0 0H12.925V0.273H0z" class="cls-3" transform="rotate(180 96.405 22.534)"/>
        <path id="Rectangle_315" d="M0 0H12.925V0.273H0z" class="cls-15" transform="rotate(180 96.405 22.534)"/>
        <path id="Rectangle_316" d="M0 0H4.71V9.18H0z" class="cls-3" transform="rotate(-169.48 94.04 19.843)"/>
        <ellipse id="Ellipse_180" cx="1.933" cy=".965" class="cls-3" rx="1.933" ry=".965" transform="rotate(-79.48 122.156 -81.683)"/>
        <ellipse id="Ellipse_181" cx="1.933" cy=".965" class="cls-15" rx="1.933" ry=".965" transform="rotate(-79.48 122.156 -81.683)"/>
        <path id="Rectangle_317" d="M0 0H4.71V9.18H0z" class="cls-3" transform="rotate(-169.48 95.314 29.332)"/>
        <ellipse id="Ellipse_182" cx="1.933" cy=".965" class="cls-3" rx="1.933" ry=".965" transform="rotate(-79.48 134.007 -72.634)"/>
        <ellipse id="Ellipse_183" cx="1.933" cy=".965" class="cls-15" rx="1.933" ry=".965" transform="rotate(-79.48 134.007 -72.634)"/>
        <path id="Rectangle_318" d="M0 0H4.71V9.18H0z" class="cls-3" transform="rotate(-61.56 106.952 -118.37)"/>
        <ellipse id="Ellipse_184" cx=".968" cy="1.938" class="cls-3" rx=".968" ry="1.938" transform="rotate(-61.39 109.071 -121.865)"/>
        <ellipse id="Ellipse_185" cx=".968" cy="1.938" class="cls-15" rx=".968" ry="1.938" transform="rotate(-61.39 109.071 -121.865)"/>
        <path id="Rectangle_319" d="M0 0H4.71V9.18H0z" class="cls-3" transform="rotate(-61.56 166.727 -62.595)"/>
        <ellipse id="Ellipse_186" cx=".965" cy="1.933" class="cls-3" rx=".965" ry="1.933" transform="rotate(-61.56 168.296 -65.042)"/>
        <ellipse id="Ellipse_187" cx=".965" cy="1.933" class="cls-15" rx=".965" ry="1.933" transform="rotate(-61.56 168.296 -65.042)"/>
        <path id="Rectangle_320" d="M0 0H4.71V9.18H0z" class="cls-3" transform="rotate(-61.56 104.655 -87.23)"/>
        <ellipse id="Ellipse_188" cx=".965" cy="1.933" class="cls-3" rx=".965" ry="1.933" transform="rotate(-61.56 106.22 -89.678)"/>
        <ellipse id="Ellipse_189" cx=".965" cy="1.933" class="cls-15" rx=".965" ry="1.933" transform="rotate(-61.56 106.22 -89.678)"/>
        <path id="Rectangle_321" d="M0 0H4.71V9.18H0z" class="cls-3" transform="rotate(-61.56 99.458 -105.792)"/>
        <ellipse id="Ellipse_190" cx=".965" cy="1.933" class="cls-3" rx=".965" ry="1.933" transform="rotate(-61.56 101.022 -108.24)"/>
        <ellipse id="Ellipse_191" cx=".965" cy="1.933" class="cls-15" rx=".965" ry="1.933" transform="rotate(-61.56 101.022 -108.24)"/>
        <path id="Rectangle_322" d="M0 0H4.71V9.18H0z" class="cls-3" transform="rotate(-6.28 492.601 -1405.921)"/>
        <ellipse id="Ellipse_192" cx=".965" cy="1.933" class="cls-3" rx=".965" ry="1.933" transform="rotate(-6.28 516.26 -1419.38)"/>
        <ellipse id="Ellipse_193" cx=".965" cy="1.933" class="cls-15" rx=".965" ry="1.933" transform="rotate(-6.28 516.26 -1419.38)"/>
        <path id="Rectangle_323" d="M0 0H4.71V9.18H0z" class="cls-3" transform="rotate(-6.28 965.819 -1674.377)"/>
        <ellipse id="Ellipse_194" cx=".965" cy="1.933" class="cls-3" rx=".965" ry="1.933" transform="rotate(-6.28 989.478 -1687.854)"/>
        <ellipse id="Ellipse_195" cx=".965" cy="1.933" class="cls-15" rx=".965" ry="1.933" transform="rotate(-6.28 989.478 -1687.854)"/>
        <path id="Rectangle_324" d="M0 0H4.71V9.18H0z" class="cls-3" transform="rotate(-61.56 127.51 -83.665)"/>
        <ellipse id="Ellipse_196" cx=".965" cy="1.933" class="cls-3" rx=".965" ry="1.933" transform="rotate(-61.56 129.076 -86.11)"/>
        <ellipse id="Ellipse_197" cx=".965" cy="1.933" class="cls-15" rx=".965" ry="1.933" transform="rotate(-61.56 129.076 -86.11)"/>
        <path id="Rectangle_325" d="M0 0H4.71V9.18H0z" class="cls-3" transform="rotate(-61.56 112.433 -69.469)"/>
        <ellipse id="Ellipse_198" cx=".968" cy="1.938" class="cls-3" rx=".968" ry="1.938" transform="rotate(-61.39 114.688 -72.672)"/>
        <ellipse id="Ellipse_199" cx=".968" cy="1.938" class="cls-15" rx=".968" ry="1.938" transform="rotate(-61.39 114.688 -72.672)"/>
        <path id="Rectangle_326" d="M0 0H4.71V9.18H0z" class="cls-3" transform="rotate(-61.56 191.43 -14.988)"/>
        <ellipse id="Ellipse_200" cx=".965" cy="1.933" class="cls-3" rx=".965" ry="1.933" transform="rotate(-61.56 192.996 -17.433)"/>
        <ellipse id="Ellipse_201" cx=".965" cy="1.933" class="cls-15" rx=".965" ry="1.933" transform="rotate(-61.56 192.996 -17.433)"/>
        <path id="Rectangle_327" d="M0 0H4.71V9.18H0z" class="cls-3" transform="rotate(-79.49 152.172 15.762)"/>
        <path id="Rectangle_328" d="M0 0H4.71V9.18H0z" class="cls-19" transform="rotate(-79.49 152.172 15.762)"/>
        <ellipse id="Ellipse_202" cx=".965" cy="1.933" class="cls-3" rx=".965" ry="1.933" transform="rotate(-79.49 153.106 13.633)"/>
        <ellipse id="Ellipse_203" cx=".965" cy="1.933" class="cls-15" rx=".965" ry="1.933" transform="rotate(-79.49 153.106 13.633)"/>
        <path id="Rectangle_329" d="M0 0H4.71V9.18H0z" class="cls-3" transform="rotate(-79.49 154.265 16.642)"/>
        <ellipse id="Ellipse_204" cx=".965" cy="1.933" class="cls-3" rx=".965" ry="1.933" transform="rotate(-79.49 155.197 14.514)"/>
        <ellipse id="Ellipse_205" cx=".965" cy="1.933" class="cls-15" rx=".965" ry="1.933" transform="rotate(-79.49 155.197 14.514)"/>
        <path id="Rectangle_330" d="M0 0H4.71V9.18H0z" class="cls-3" transform="rotate(-61.56 206.192 -17.029)"/>
        <ellipse id="Ellipse_206" cx=".965" cy="1.933" class="cls-3" rx=".965" ry="1.933" transform="rotate(-61.56 207.758 -19.477)"/>
        <ellipse id="Ellipse_207" cx=".965" cy="1.933" class="cls-15" rx=".965" ry="1.933" transform="rotate(-61.56 207.758 -19.477)"/>
        <path id="Rectangle_331" d="M0 0H4.71V9.18H0z" class="cls-3" transform="rotate(-79.49 164.092 15.985)"/>
        <path id="Rectangle_332" d="M0 0H4.71V9.18H0z" class="cls-19" transform="rotate(-79.49 164.092 15.985)"/>
        <ellipse id="Ellipse_208" cx=".965" cy="1.933" class="cls-3" rx=".965" ry="1.933" transform="rotate(-79.49 165.024 13.858)"/>
        <ellipse id="Ellipse_209" cx=".965" cy="1.933" class="cls-15" rx=".965" ry="1.933" transform="rotate(-79.49 165.024 13.858)"/>
        <path id="Rectangle_333" d="M0 0H4.71V9.18H0z" class="cls-3" transform="rotate(-79.49 166.186 16.868)"/>
        <ellipse id="Ellipse_210" cx=".965" cy="1.933" class="cls-3" rx=".965" ry="1.933" transform="rotate(-79.49 167.119 14.738)"/>
        <ellipse id="Ellipse_211" cx=".965" cy="1.933" class="cls-15" rx=".965" ry="1.933" transform="rotate(-79.49 167.119 14.738)"/>
        <path id="Rectangle_334" d="M0 0H4.71V9.18H0z" class="cls-3" transform="rotate(-61.56 206.895 -32.864)"/>
        <ellipse id="Ellipse_212" cx=".965" cy="1.933" class="cls-3" rx=".965" ry="1.933" transform="rotate(-61.56 208.459 -35.31)"/>
        <ellipse id="Ellipse_213" cx=".965" cy="1.933" class="cls-15" rx=".965" ry="1.933" transform="rotate(-61.56 208.459 -35.31)"/>
        <path id="Rectangle_335" d="M0 0H4.71V9.18H0z" class="cls-3" transform="rotate(-79.49 166.623 3.56)"/>
        <path id="Rectangle_336" d="M0 0H4.71V9.18H0z" class="cls-19" transform="rotate(-79.49 166.623 3.56)"/>
        <ellipse id="Ellipse_214" cx=".965" cy="1.933" class="cls-3" rx=".965" ry="1.933" transform="rotate(-79.49 167.555 1.432)"/>
        <ellipse id="Ellipse_215" cx=".965" cy="1.933" class="cls-15" rx=".965" ry="1.933" transform="rotate(-79.49 167.555 1.432)"/>
        <path id="Rectangle_337" d="M0 0H4.71V9.18H0z" class="cls-3" transform="rotate(-79.49 168.717 4.441)"/>
        <ellipse id="Ellipse_216" cx=".965" cy="1.933" class="cls-3" rx=".965" ry="1.933" transform="rotate(-79.49 169.65 2.312)"/>
        <ellipse id="Ellipse_217" cx=".965" cy="1.933" class="cls-15" rx=".965" ry="1.933" transform="rotate(-79.49 169.65 2.312)"/>
    </g>
</svg>
