<svg xmlns="http://www.w3.org/2000/svg" width="79.629" height="79.628" viewBox="0 0 79.629 79.628">
    <path fill="#fd7600" d="M62.987 39.97a9.331 9.331 0 1 0 0 18.663h13.22c.053 0 .1-.005.156-.008s.1.008.155.008a3.11 3.11 0 0 0 3.11-3.11V31.105a12.431 12.431 0 0 0-5.156-10.076L63.89 3.669a3.111 3.111 0 0 0-4.3-1.024l-7.8 4.839-3.518-5.956A3.111 3.111 0 0 0 43.979.453l-29.965 18.21H9.331a3.114 3.114 0 0 1-3.11-3.033 3.114 3.114 0 0 1 3.11-3.03h5.754a3.11 3.11 0 1 0 0-6.221H9.331a9.348 9.348 0 0 0-9.077 7.167A3.1 3.1 0 0 0 0 14.775v52.411a12.456 12.456 0 0 0 12.442 12.442h54.745a12.427 12.427 0 0 0 11.8-8.5 3.11 3.11 0 0 0-5.9-1.969 6.214 6.214 0 0 1-5.9 4.25H12.442a6.228 6.228 0 0 1-6.221-6.221V24.351a9.287 9.287 0 0 0 3.11.534h57.856a6.228 6.228 0 0 1 6.221 6.221v8.864zm10.42 12.442h-10.42a3.11 3.11 0 1 1 0-6.221h10.42zM25.992 18.663L44.518 7.4l3.312 5.605a3.118 3.118 0 0 0 .227.45 3.157 3.157 0 0 0 .221.308l2.893 4.9zm32.4 0l-3.44-5.822 5.258-3.257 5.535 9.08z"/>
</svg>
