<svg xmlns="http://www.w3.org/2000/svg" width="67.955" height="83.994" viewBox="0 0 67.955 83.994">
    <defs>
        <style>
            .cls-1{fill:#fd7600}
        </style>
    </defs>
    <g id="_002-place">
        <g id="Group_31">
            <g id="Group_30">
                <path id="Path_65" d="M110.744 14.6a33.914 33.914 0 0 0-55.76 0 33.919 33.919 0 0 0-3.949 31.251 26.711 26.711 0 0 0 4.923 8.128l24.67 28.981a2.935 2.935 0 0 0 4.472 0l24.663-28.969a26.738 26.738 0 0 0 4.922-8.117 33.925 33.925 0 0 0-3.941-31.274zm-1.558 29.213a20.949 20.949 0 0 1-3.874 6.345.108.108 0 0 0-.014.016L82.864 76.528 60.417 50.162a20.963 20.963 0 0 1-3.881-6.362 28.057 28.057 0 0 1 3.28-25.853 28.04 28.04 0 0 1 46.1 0 28.062 28.062 0 0 1 3.27 25.87z" class="cls-1" transform="translate(-48.886)"/>
            </g>
        </g>
        <g id="Group_33" transform="translate(17.532 17.425)">
            <g id="Group_32">
                <path id="Path_66" d="M172.2 106.219a16.446 16.446 0 1 0 16.447 16.446 16.465 16.465 0 0 0-16.447-16.446zm0 27.019a10.573 10.573 0 1 1 10.573-10.573 10.585 10.585 0 0 1-10.573 10.573z" class="cls-1" transform="translate(-155.754 -106.219)"/>
            </g>
        </g>
    </g>
</svg>
