<svg xmlns="http://www.w3.org/2000/svg" width="225.991" height="168.389" viewBox="0 0 225.991 168.389">
    <defs>
        <style>
            .cls-1{fill:#3f3d56}.cls-2{fill:#ffb9b9}.cls-3{fill:#cfcce0}.cls-4{fill:#2f2e41}.cls-5{fill:#f2f2f2}.cls-6{fill:#fd7600}
        </style>
    </defs>
    <g id="Group_462">
        <path id="Rectangle_271" d="M0 0H137.663V0.585H0z" class="cls-1" transform="translate(25.251 158.745)"/>
        <path id="Path_684" d="M538.237 424.485s-2.921 13.147 2.922 10.81S543.5 423.9 543.5 423.9z" class="cls-2" transform="translate(-439.981 -346.167)"/>
        <path id="Path_685" d="M750.228 443.964s7.012 8.472 2.629 10.225-6.719-7.888-6.135-8.765 3.506-1.46 3.506-1.46z" class="cls-2" transform="translate(-597.339 -361.264)"/>
        <circle id="Ellipse_152" cx="8.765" cy="8.765" r="8.765" class="cls-2" transform="translate(127.472 5.279)"/>
        <path id="Path_686" d="M520.237 70.3l-1.169 9.057 9.641 3.506 2.045-10.225z" class="cls-2" transform="translate(-390.574 -52.901)"/>
        <path id="Path_687" d="M600.785 202.7s-4.953-2.445-5.982-4.436l-2.2 2.1s-15.776-1.461-18.114 6.427-.292 36.519-.292 36.519-3.214 12.855-2.337 13.147a46.17 46.17 0 0 0 26.878 2.629s6.72-1.169 7.888-.292-.584-14.023-.584-14.023 11.686-26.294 9.641-29.508-11.1-9.933-11.1-9.933l.584-3.214s-4.09 1.754-4.382.584z" class="cls-3" transform="translate(-465.718 -176.387)"/>
        <path id="Path_688" d="M548.672 224.447s-5.259 2.629-6.135 6.72-9.057 37.98-8.18 40.025a10.759 10.759 0 0 1 .584 4.674l7.6-.876s-1.461-2.045-.584-2.922 1.753-3.8 1.169-4.967-1.169.876 2.045-2.922 10.513-38.563 3.501-39.732z" class="cls-3" transform="translate(-437.561 -196.088)"/>
        <path id="Path_689" d="M711.189 264.574s2.483.146 3.068 4.236 1.607 29.362 1.607 29.362 3.8 8.18 2.337 9.349a2.425 2.425 0 0 0-.584 2.922l-5.259 1.461-11.394-17.821z" class="cls-3" transform="translate(-562.975 -226.282)"/>
        <path id="Path_690" d="M564.913 428.622s-1.753.292-1.753 6.72-3.214 26.294-1.169 29.508 2.337 32.137 2.337 32.137 5.551 2.337 10.225-5.259l.584-4.09 1.169-19.867 4.674-24.833 6.427 27.463s-.877 33.014 2.337 33.014 9.349-2.629 9.349-2.629 1.461-2.922.876-4.382-1.169-1.169-.584-2.337 1.461-31.553 1.461-31.553-1.169-31.261-2.629-32.137-33.304-1.755-33.304-1.755z" class="cls-4" transform="translate(-457.892 -349.72)"/>
        <path id="Path_691" d="M549.078 685.859l-4.675 4.967s-8.472 7.888-1.169 8.18 11.394-4.675 11.394-5.259.292-2.629 2.337-2.629 7.012-4.967 5.843-7.012-4.675-2.922-4.675-2.922z" class="cls-4" transform="translate(-442.058 -539.761)"/>
        <path id="Path_692" d="M670.973 716.094s-3.506 7.012-1.461 8.473a24.577 24.577 0 0 1 2.629 2.045s1.753-.292 1.461 2.337 10.518 4.09 11.1 2.045.292-6.135-.876-7.3-4.674-9.349-4.674-9.349-3.797-4.386-8.179 1.749z" class="cls-4" transform="translate(-538.827 -563.569)"/>
        <path id="Path_693" d="M670.866 116.892l1.651-.235s-2.3-4.231-6.747-5l1.562-1.054s-2.714-1.939-6.221.553a27.478 27.478 0 0 0-5.559 4.8l-1.611-.394.31 1.644-2.714.905 2.48.324a8.515 8.515 0 0 0-.666 2.439 3.27 3.27 0 0 0 .655 2.362 34.374 34.374 0 0 0 2.956-4.007l-.368 1.505s1.835-.987 2.056-1.89l.563 1.254.815-1.556 4.654 2.892-.489-1.555 3.034 1.22-.826-1.956s3.077 2.826 2.809 4.515a8.183 8.183 0 0 0 .389 3.512s4.68-7.052 1.267-10.278z" class="cls-4" transform="translate(-525.784 -109.886)"/>
        <path id="Rectangle_272" d="M0 0H46.786V0.56H0z" class="cls-1" transform="translate(179.205 106.309)"/>
        <path id="Rectangle_273" d="M0 0H11.278V11.278H0z" class="cls-3" transform="translate(39.83 149.446)"/>
        <path id="Path_694" d="M307.915 717.073h-11.871V705.2h11.871zm-11.278-.594h10.684V705.8h-10.683z" class="cls-1" transform="translate(-258.292 -557.833)"/>
        <path id="Rectangle_274" d="M0 0H7.652V7.387H0z" class="cls-5" transform="matrix(.933 -.361 .361 .933 56.31 53.665)"/>
        <path id="Path_695" d="M374.031 319.114l-7.513 2.906-2.8-7.253 7.513-2.906zm-7.277 2.4l6.762-2.615-2.524-6.527-6.761 2.615z" class="cls-1" transform="translate(-309.209 -261.863)"/>
        <path id="Rectangle_275" d="M0 0H7.652V7.387H0z" class="cls-5" transform="rotate(71.027 6.61 198.423)"/>
        <path id="Path_696" d="M895.829 628.568l-2.619-7.617 7.354-2.528 2.619 7.617zm-2.12-7.363l2.357 6.856 6.618-2.276-2.357-6.856z" class="cls-1" transform="translate(-707.631 -492.535)"/>
        <path id="Path_697" d="M263.657 509.5a12.986 12.986 0 0 1 7.513 3.122 11.18 11.18 0 0 1-15.153-.325 12.986 12.986 0 0 1 7.64-2.797z" class="cls-6" transform="translate(-228.173 -410.576)"/>
        <path id="Path_698" d="M184.952 432.568a12.986 12.986 0 0 0 8.115.578 11.18 11.18 0 0 0-13.69-6.5 12.986 12.986 0 0 0 5.575 5.922z" class="cls-6" transform="translate(-170.505 -347.926)"/>
        <path id="Path_699" d="M181.329 444.483a12.986 12.986 0 0 1 7.816 2.258 11.181 11.181 0 0 1-15.094 1.379 12.986 12.986 0 0 1 7.278-3.637z" class="cls-1" transform="translate(-166.498 -361.626)"/>
        <path id="Path_700" d="M265.044 425.441a12.986 12.986 0 0 0 2.223 7.826 11.18 11.18 0 0 0 1.447-15.087 12.986 12.986 0 0 0-3.67 7.261z" class="cls-1" transform="translate(-234.935 -341.862)"/>
        <path id="Path_701" d="M339.727 535.789a12.986 12.986 0 0 0-1.434 8.009 11.18 11.18 0 0 0 7.917-12.925 12.985 12.985 0 0 0-6.483 4.916z" class="cls-1" transform="translate(-289.988 -426.659)"/>
        <path id="Path_702" d="M252.992 516.274l.319-.215a9.98 9.98 0 0 1-1.762-5.535c.009-2.895 1.431-5.572 2.806-8.162.255-.481.51-.96.754-1.438a31.4 31.4 0 0 0 2.442-6.131c2.133-7.926.033-17.278-5.617-25.016-4.482-6.138-11.164-11.506-20.427-16.41l-.18.34c9.21 4.876 15.849 10.206 20.3 16.3 5.582 7.645 7.66 16.874 5.557 24.689a31.028 31.028 0 0 1-2.413 6.056c-.244.477-.5.954-.752 1.433-1.4 2.631-2.842 5.351-2.851 8.341a10.369 10.369 0 0 0 1.824 5.748z" class="cls-1" transform="translate(-209.595 -368.339)"/>
        <circle id="Ellipse_153" cx="3.653" cy="3.653" r="3.653" class="cls-1" transform="translate(0 78.228)"/>
        <path id="Path_703" d="M675.127 273.731l-47.018-16.887 8.394-23.372 29.276-7.18 17.742 24.067z" class="cls-4" transform="translate(-472.622 -170.275)"/>
        <path id="Path_704" d="M831.772 363.818l-35.137-13.394c9.122-12.218 13.2-20.837 13.2-34.4l35.137 13.394c-8.16 11.596-11.572 20.313-13.2 34.4z" class="cls-5" transform="translate(-634.963 -264.996)"/>
        <path id="Rectangle_276" d="M0 0H19.481V0.906H0z" class="cls-1" transform="rotate(20.866 -70.386 522.167)"/>
        <path id="Rectangle_277" d="M0 0H19.481V0.906H0z" class="cls-1" transform="rotate(20.866 -80.229 520.354)"/>
        <path id="Rectangle_278" d="M0 0H19.481V0.906H0z" class="cls-1" transform="rotate(20.866 -90.069 518.542)"/>
        <path id="Rectangle_279" d="M0 0H19.481V0.906H0z" class="cls-1" transform="rotate(20.866 -99.911 516.73)"/>
        <path id="Rectangle_280" d="M0 0H19.481V0.906H0z" class="cls-1" transform="rotate(20.866 -109.752 514.917)"/>
        <path id="Rectangle_281" d="M0 0H19.481V0.906H0z" class="cls-1" transform="rotate(20.866 -119.594 513.105)"/>
        <path id="Rectangle_282" d="M0 0H19.481V0.906H0z" class="cls-1" transform="rotate(20.866 -129.437 511.293)"/>
        <path id="Rectangle_283" d="M0 0H19.481V0.906H0z" class="cls-1" transform="rotate(20.866 -139.277 509.48)"/>
        <path id="Path_705" d="M670.739 298.579l-47.018-16.887 9.48-26.4 19.855 18.617 27.163-1.73z" class="cls-1" transform="translate(-469.32 -192.098)"/>
        <path id="Path_706" d="M645.886 322.6l-23.444-8.42 5.712-15.906.466.167-5.545 15.439 22.978 8.253z" class="cls-6" transform="translate(-468.358 -224.439)"/>
        <path id="Rectangle_284" d="M0 0H7.304V2.922H0z" class="cls-6" transform="rotate(19.756 -145.044 505.475)"/>
        <path id="Path_707" d="M257.664 579.255l-36.8-.019.289-20.659 18.288 8.22 18.511-7.705z" class="cls-1" transform="translate(-166.19 -420.302)"/>
        <path id="Rectangle_285" d="M0 0H5.381V2.152H0z" class="cls-6" transform="rotate(.801 -10665.02 4195.188)"/>
        <path id="Path_708" d="M258.66 558.878l-18.6 9.483-18.419-9.483v-.547h37.019z" class="cls-6" transform="translate(-166.774 -420.118)"/>
        <ellipse id="Ellipse_154" cx="2.235" cy="6.189" class="cls-6" rx="2.235" ry="6.189" transform="rotate(-69.134 135.496 -106.185)"/>
        <path id="Path_709" d="M930.277 211.142a9.407 9.407 0 0 0-11.776 6.189c-1.543 4.961 2.661 23.122 2.661 23.122s13.761-12.575 15.3-17.536a9.407 9.407 0 0 0-6.185-11.775zm-4.116 13.237a4.456 4.456 0 1 1 5.578-2.932 4.456 4.456 0 0 1-5.578 2.932z" class="cls-6" transform="translate(-726.405 -185.755)"/>
    </g>
</svg>
